<svg width="285" height="234" viewBox="0 0 285 234" fill="none" xmlns="http://www.w3.org/2000/svg">
<path d="M113.262 89.4611L137.84 66.5431L163.083 115.368L195.633 89.4611L216.226 135.961L241.137 115.368L279.998 170.172" stroke="white" stroke-width="10"/>
<mask id="mask0" mask-type="alpha" maskUnits="userSpaceOnUse" x="-1" y="36" width="279" height="199">
<path d="M239.809 131.644L277.009 181.797V226.969L75.0648 233.612L0 200.065L36.536 36.9822L116.251 103.411L133.854 88.1325L159.762 131.644L189.323 110.054L212.241 152.901L239.809 131.644Z" fill="#C4C4C4" stroke="white"/>
</mask>
<g mask="url(#mask0)">
<rect width="50.4861" height="125.551" transform="matrix(-1 0 0 1 268.041 75.1789)" fill="#1ABC9C"/>
<rect width="50.4861" height="142.822" transform="matrix(-1 0 0 1 212.241 57.9073)" fill="#E74C3C"/>
<rect width="50.4861" height="157.437" transform="matrix(-1 0 0 1 156.44 43.2929)" fill="#F1C40F"/>
<rect width="50.4861" height="184.673" transform="matrix(-1 0 0 1 102.633 16.057)" fill="#2ECC71"/>
</g>
<path d="M53.091 27.0148C50.3377 27.2271 48.2779 29.6311 48.4902 32.3844L51.9497 77.2512C52.162 80.0045 54.5661 82.0643 57.3193 81.852C60.0726 81.6397 62.1324 79.2357 61.9201 76.4824L58.845 36.6008L98.7266 33.5256C101.48 33.3134 103.54 30.9093 103.327 28.1561C103.115 25.4028 100.711 23.3429 97.9578 23.5552L53.091 27.0148ZM123.253 85.2031L56.7286 28.2031L50.2221 35.7969L116.747 92.7969L123.253 85.2031Z" fill="white"/>
</svg>
